<svg width="20" height="20" viewBox="0 0 20 20" fill="none" xmlns="http://www.w3.org/2000/svg">
<path d="M10 20C4.48937 20 0 15.5106 0 10C0 4.48937 4.48937 0 10 0C15.5106 0 20 4.48937 20 10C20 15.5106 15.5106 20 10 20ZM18.4344 11.3675C18.1419 11.2756 15.7913 10.5731 13.1119 11.0025C14.2288 14.0725 14.6844 16.5725 14.7725 17.0931C16.6894 15.7975 18.0531 13.7431 18.4344 11.3675ZM13.3369 17.8744C13.21 17.1263 12.7119 14.515 11.5138 11.4L11.4587 11.4156C6.63437 13.0956 4.90937 16.4387 4.75937 16.7512C6.19875 17.8806 8.02437 18.5544 10 18.5544C11.1819 18.5544 12.3081 18.3138 13.3331 17.8769L13.3369 17.8744ZM3.65562 15.7256C3.8475 15.3906 6.19125 11.5131 10.5988 10.0875C10.7094 10.0494 10.8231 10.0169 10.9338 9.98688C10.7188 9.49875 10.4844 9.01375 10.2406 8.53875C5.97625 9.81125 1.83875 9.75937 1.465 9.74938L1.46187 10.01C1.46187 12.2044 2.29187 14.2094 3.65625 15.7225L3.65562 15.7256ZM1.6375 8.26188C2.02187 8.26875 5.54 8.28438 9.53438 7.22375C8.11875 4.70687 6.59187 2.59125 6.3675 2.28188C3.9775 3.40875 2.19437 5.60875 1.6375 8.25875V8.26188ZM8.00187 1.70937C8.23625 2.02875 9.78875 4.1375 11.185 6.70937C14.2219 5.57375 15.5106 3.84437 15.6644 3.62687C14.1537 2.28188 12.1713 1.47187 10 1.47187C9.31312 1.47187 8.6425 1.5525 8.00187 1.70937ZM16.6119 4.6125C16.4325 4.85313 15 6.68938 11.8425 7.97813C12.0406 8.38813 12.2331 8.79875 12.4094 9.21812C12.4775 9.36812 12.5325 9.51812 12.5912 9.65812C15.4338 9.3 18.2587 9.87625 18.5419 9.935C18.525 7.91687 17.8094 6.0675 16.6175 4.61563L16.6119 4.6125Z" fill="#AA7F12"/>
</svg>
