<svg width="20" height="18" viewBox="0 0 20 18" fill="none" xmlns="http://www.w3.org/2000/svg">
<path d="M19.5468 2.70249C19.2326 2.84184 18.9096 2.95945 18.5795 3.05494C18.9703 2.613 19.2682 2.093 19.4501 1.52397C19.4909 1.39642 19.4486 1.25681 19.3438 1.17339C19.239 1.08991 19.0936 1.07991 18.9783 1.14823C18.2773 1.56397 17.521 1.86274 16.7281 2.03745C15.9293 1.25694 14.8444 0.812744 13.7229 0.812744C11.3554 0.812744 9.42937 2.73874 9.42937 5.1061C9.42937 5.29255 9.44117 5.47797 9.46453 5.66081C6.52679 5.40287 3.79563 3.95894 1.92014 1.65836C1.8533 1.57636 1.75034 1.53216 1.64492 1.54062C1.53943 1.54887 1.44466 1.60836 1.39137 1.69978C1.01098 2.35249 0.809885 3.099 0.809885 3.85855C0.809885 4.89307 1.17924 5.87462 1.83169 6.64158C1.6333 6.57287 1.44079 6.487 1.25705 6.385C1.1584 6.3301 1.03801 6.33094 0.940014 6.38713C0.841949 6.44333 0.780465 6.54668 0.777885 6.65965C0.777433 6.67868 0.777433 6.69771 0.777433 6.717C0.777433 8.2612 1.60853 9.65145 2.87917 10.4092C2.77001 10.3983 2.66092 10.3825 2.55253 10.3618C2.44079 10.3404 2.32588 10.3796 2.25053 10.4648C2.17505 10.55 2.15008 10.6687 2.18485 10.7771C2.65517 12.2455 3.86608 13.3255 5.32995 13.6548C4.11582 14.4153 2.72737 14.8136 1.26982 14.8136C0.965691 14.8136 0.65982 14.7957 0.360465 14.7603C0.211756 14.7426 0.0695621 14.8304 0.0189169 14.9718C-0.0317283 15.1133 0.0219492 15.2711 0.148465 15.3522C2.02092 16.5527 4.18601 17.1873 6.40956 17.1873C10.7808 17.1873 13.5153 15.126 15.0395 13.3968C16.9401 11.2406 18.0302 8.38662 18.0302 5.56668C18.0302 5.44887 18.0284 5.32991 18.0248 5.21133C18.7747 4.64636 19.4203 3.96262 19.9456 3.17674C20.0254 3.05739 20.0168 2.89965 19.9243 2.78978C19.832 2.67984 19.6781 2.64429 19.5468 2.70249Z" fill="#AA7F12"/>
</svg>
