<svg width="23" height="23" viewBox="0 0 23 23" fill="none" xmlns="http://www.w3.org/2000/svg">
<g clip-path="url(#clip0_34_2373)">
<path d="M11.0311 22.4693L11.0311 0.530877C11.0311 0.269915 11.242 0.0590818 11.5029 0.0590819C11.7639 0.0590819 11.9747 0.269915 11.9747 0.530877L11.9747 21.3297L14.8379 18.4665C15.0222 18.2822 15.3215 18.2822 15.5058 18.4665C15.6901 18.6508 15.6901 18.95 15.5058 19.1343L11.8361 22.804C11.7005 22.9397 11.4985 22.9795 11.3216 22.9058C11.1461 22.832 11.0311 22.6595 11.0311 22.4693Z" fill="#4750E7"/>
<path d="M7.35703 18.7952C7.35703 18.6743 7.40274 18.5534 7.49562 18.462C7.67992 18.2777 7.97921 18.2777 8.16351 18.462L11.8376 22.1361C12.0219 22.3204 12.0219 22.6196 11.8376 22.8039C11.6533 22.9882 11.354 22.9882 11.1697 22.8039L7.49562 19.1298C7.40274 19.037 7.35703 18.9161 7.35703 18.7952Z" fill="#4750E7"/>
</g>
<defs>
<clipPath id="clip0_34_2373">
<rect width="23" height="23" fill="white" transform="translate(23) rotate(90)"/>
</clipPath>
</defs>
</svg>
