<svg width="221" height="212" viewBox="0 0 221 212" fill="none" xmlns="http://www.w3.org/2000/svg">
<path d="M110.414 211.695C171.394 211.695 220.828 164.305 220.828 105.847C220.828 47.3895 171.394 0 110.414 0C49.434 0 0 47.3895 0 105.847C0 164.305 49.434 211.695 110.414 211.695Z" fill="#FEE475"/>
<path d="M110.414 209.018C169.852 209.018 218.036 162.827 218.036 105.847C218.036 48.8676 169.852 2.67651 110.414 2.67651C50.9759 2.67651 2.79199 48.8676 2.79199 105.847C2.79199 162.827 50.9759 209.018 110.414 209.018Z" fill="#FED425"/>
<path d="M186.688 33.1533L34.5835 178.967C44.7999 188.7 56.9835 196.426 70.5632 201.657L210.357 67.6449C204.963 54.6269 196.841 42.8864 186.688 33.1533Z" fill="#FAC900"/>
<path d="M215.307 128.842L134.4 206.402C174.568 197.643 206.169 167.348 215.307 128.842Z" fill="#FAC900"/>
<path d="M57.5549 15.9986L16.689 55.1743C12.1837 62.8391 8.63011 71.0514 6.28223 79.7504L83.1912 6.02222C74.1169 8.33382 65.5503 11.6796 57.5549 15.9986Z" fill="#FAC900"/>
<path d="M172.537 21.656L22.5903 165.402C24.3671 167.774 26.2073 170.086 28.111 172.276L179.708 26.9484C177.424 25.1234 175.012 23.3593 172.537 21.656Z" fill="#FAC900"/>
<path d="M112.508 182.556C155.579 182.556 190.495 149.084 190.495 107.794C190.495 66.5039 155.579 33.0317 112.508 33.0317C69.4363 33.0317 34.52 66.5039 34.52 107.794C34.52 149.084 69.4363 182.556 112.508 182.556Z" fill="#FAC900"/>
<path d="M110.414 180.61C153.485 180.61 188.402 147.138 188.402 105.847C188.402 64.5574 153.485 31.0852 110.414 31.0852C67.3426 31.0852 32.4263 64.5574 32.4263 105.847C32.4263 147.138 67.3426 180.61 110.414 180.61Z" fill="#FEB724"/>
<path d="M36.6779 109.923C36.6779 68.6184 71.5788 35.1609 114.666 35.1609C135.098 35.1609 153.691 42.7041 167.652 55.0529C153.437 40.3316 133.068 31.0852 110.477 31.0852C67.3907 31.0852 32.4897 64.5427 32.4897 105.847C32.4897 127.504 42.1351 147.031 57.4915 160.657C44.5464 147.335 36.6779 129.511 36.6779 109.923Z" fill="#FB9D12"/>
<path d="M110.414 4.07573C170.697 4.07573 219.622 50.3687 220.764 107.916C220.764 107.246 220.828 106.577 220.828 105.908C220.828 47.388 171.395 0 110.414 0C49.4324 0 0 47.388 0 105.847C0 106.516 0.0634562 107.186 0.0634562 107.855C1.20567 50.3687 50.1304 4.07573 110.414 4.07573Z" fill="#FAC900"/>
</svg>
