<svg width="551" height="528" viewBox="0 0 551 528" fill="none" xmlns="http://www.w3.org/2000/svg">
<g clip-path="url(#clip0_34_2215)">
<path d="M261.67 499.921L509.632 357.087C512.569 355.378 512.569 352.692 509.632 350.983L306.465 234.029C303.527 232.32 298.754 232.32 295.817 234.029L47.8544 376.864C44.917 378.573 44.917 381.259 47.8544 382.968L251.022 499.921C254.082 501.631 258.855 501.631 261.67 499.921Z" fill="#E1E1E1"/>
<path d="M65.4786 334.746C64.6218 324.613 59.971 307.888 48.0992 292.018C35.493 275.048 20.0719 264.305 8.56719 269.311C-2.08074 273.95 1.95813 288.721 20.3166 303.249C33.29 313.504 46.6305 326.689 53.8515 342.681L65.4786 363.069V334.746Z" fill="#4750E7"/>
<g opacity="0.2">
<path d="M65.4786 334.746C64.6218 324.613 59.971 307.888 48.0992 292.018C35.493 275.048 20.0719 264.305 8.56719 269.311C-2.08074 273.95 1.95813 288.721 20.3166 303.249C33.29 313.504 46.6305 326.689 53.8515 342.681L65.4786 363.069V334.746Z" fill="black"/>
</g>
<path d="M64.4995 342.559C64.2547 342.559 63.8875 342.437 63.7651 342.071C53.4844 313.87 32.0661 285.303 14.0748 275.781C13.7076 275.537 13.5852 275.171 13.83 274.804C14.0748 274.438 14.4419 274.316 14.8091 274.56C33.1676 284.327 54.8306 313.26 65.2338 341.705C65.3562 342.071 65.2338 342.437 64.7442 342.681C64.6219 342.437 64.6219 342.559 64.4995 342.559Z" fill="white"/>
<path d="M70.0071 383.212C70.0071 383.212 62.4189 389.927 49.5679 392.002C36.717 394.077 30.9646 387.851 30.9646 387.851C30.9646 387.851 35.9826 375.765 43.326 372.469C43.326 372.469 30.9646 375.033 20.9287 381.625C20.9287 381.625 13.0957 381.747 9.91355 369.783C9.91355 369.783 14.5644 362.58 30.2303 358.674C30.2303 358.674 20.6839 356.232 6.97619 359.773C5.99707 360.139 1.59102 344.634 0.244734 337.554C-1.10156 330.351 1.8358 330.473 7.34336 329.008C12.9733 327.543 31.9438 326.567 35.4931 329.619C39.0424 332.671 40.7558 343.17 40.7558 343.17C40.7558 343.17 41.8573 335.845 41.123 330.595C41.123 330.595 48.956 330.107 55.1979 332.304C61.4398 334.502 61.0726 337.554 61.0726 342.071C61.0726 346.954 60.583 350.128 59.2367 355.622C59.2367 355.622 63.5204 351.837 63.7652 338.042C63.7652 338.042 72.2101 345.245 75.637 351.471C79.0639 357.697 78.2072 373.934 70.0071 383.212Z" fill="#4750E7"/>
<path d="M70.0072 383.945C69.7624 383.945 69.5177 383.823 69.3953 383.578C54.4637 362.214 20.3169 336.943 6.36439 334.258C5.99722 334.136 5.75244 333.769 5.75244 333.403C5.87483 333.037 6.242 332.793 6.60917 332.793C20.684 335.479 55.9324 360.383 70.4968 382.846C70.7416 383.212 70.4968 383.578 70.1296 383.823C70.252 383.945 70.1296 383.945 70.0072 383.945Z" fill="white"/>
<path d="M473.649 324.735L463.001 318.631C463.001 318.631 457.861 290.552 461.655 266.38C467.04 232.442 490.172 220.722 498.617 224.018C507.062 227.437 509.02 237.447 493.844 257.102C484.909 268.822 473.282 293.238 473.649 324.735Z" fill="#4750E7"/>
<g opacity="0.2">
<path d="M473.649 324.735L463.001 318.631C463.001 318.631 457.861 290.552 461.655 266.38C467.04 232.442 490.172 220.722 498.617 224.018C507.062 227.437 509.02 237.447 493.844 257.102C484.909 268.822 473.282 293.238 473.649 324.735Z" fill="black"/>
</g>
<path d="M469.733 311.306C469.733 311.306 469.855 311.306 469.733 311.306C470.222 311.184 470.589 310.818 470.467 310.452C466.061 278.711 478.912 243.796 493.231 229.756C493.476 229.512 493.476 229.024 493.231 228.657C492.987 228.413 492.497 228.413 492.13 228.657C477.443 242.941 464.347 278.344 468.876 310.574C468.998 311.062 469.365 311.306 469.733 311.306Z" fill="white"/>
<path d="M503.145 341.826C504.859 342.803 508.286 340.728 509.632 339.751C511.957 338.286 513.793 336.089 515.017 333.647C516.486 330.839 516.853 327.787 516.363 324.613C516.119 323.026 515.629 321.439 515.262 319.852C514.772 318.265 514.405 316.8 513.916 315.213C513.426 313.626 513.059 312.039 513.181 310.574C513.548 307.4 516.486 305.202 519.056 303.249C521.871 301.173 524.931 298.366 524.808 294.459C524.808 291.529 523.217 288.721 521.381 286.402C519.545 284.082 517.342 282.007 515.751 279.565C514.527 277.856 513.671 275.781 513.793 273.583C513.915 272.24 514.405 271.019 515.139 269.921C516.486 267.479 518.322 265.16 519.178 262.474C520.157 259.788 520.035 256.492 517.832 254.538C516.119 252.951 513.548 252.707 511.223 252.951C509.02 253.074 506.939 254.05 505.103 255.149C498.984 258.567 495.557 265.77 489.07 268.334C486.623 269.31 483.808 269.554 481.237 270.287C478.667 271.019 475.975 272.24 474.751 274.682C472.425 279.443 476.831 285.303 475.118 290.308C473.649 294.703 469.243 296.412 466.918 300.441C465.816 302.15 465.571 304.225 465.816 306.301C466.061 309.719 466.673 312.283 468.264 316.189C469.61 319.363 473.649 325.101 473.649 325.101C473.772 324.857 502.9 341.704 503.145 341.826Z" fill="#4750E7"/>
<path d="M485.888 332.67C486.378 332.67 486.622 332.304 486.622 331.938C485.399 301.784 499.596 268.578 509.877 258.933C510.121 258.689 510.244 258.201 509.877 257.835C509.632 257.591 509.142 257.468 508.775 257.835C498.25 267.723 483.685 301.418 485.031 331.938C485.154 332.304 485.521 332.67 485.888 332.67Z" fill="white"/>
<path d="M490.417 297.023C490.539 297.023 490.539 297.023 490.661 297.023C500.33 294.093 512.447 293.482 512.569 293.482C512.936 293.482 513.304 293.116 513.304 292.75C513.304 292.384 512.936 292.017 512.569 292.017C512.447 292.017 500.208 292.506 490.294 295.558C489.927 295.68 489.682 296.046 489.805 296.534C489.805 296.901 490.05 297.023 490.417 297.023Z" fill="white"/>
<path d="M68.6606 379.183C68.6606 382.968 71.4756 387.485 74.9025 389.56L249.92 490.277C253.347 492.23 258.977 492.23 262.404 490.277L501.799 352.448C505.226 350.494 508.041 345.855 508.041 342.071C508.041 338.286 505.226 333.769 501.799 331.694L326.781 230.977C323.354 229.024 317.724 229.024 314.297 230.977L74.9025 368.807C71.3532 370.882 68.6606 375.521 68.6606 379.183Z" fill="#2B454E"/>
<path d="M256.04 478.313V491.742C253.837 491.742 251.511 491.254 249.798 490.277L74.78 389.56C71.3531 387.607 68.5381 382.968 68.5381 379.183C68.5381 375.643 70.9859 371.37 74.168 369.295C71.3531 371.248 71.5978 374.178 74.78 376.131L249.798 476.848C251.511 477.825 253.837 478.313 256.04 478.313Z" fill="#1A2E35"/>
<path d="M62.7859 369.051C59.6037 367.219 56.9111 362.458 56.9111 358.43V150.16C56.9111 146.131 59.7261 141.37 63.153 139.416L302.548 1.58707C305.975 -0.366222 311.36 -0.488303 314.665 1.34291C317.847 3.17413 320.539 7.93528 320.539 11.964V220.234C320.539 224.263 317.724 229.024 314.297 230.977L74.9025 368.806C71.3532 370.882 65.968 370.882 62.7859 369.051Z" fill="#375A64"/>
<path d="M74.1681 369.173C70.7412 370.76 65.8456 370.76 62.7859 369.051C59.6037 367.219 56.9111 362.458 56.9111 358.552V150.159C56.9111 148.206 57.6455 146.009 58.747 144.055L70.4964 150.77C69.3949 152.723 68.6606 154.921 68.6606 156.874V365.144C68.6606 368.928 70.986 370.638 74.1681 369.173Z" fill="#1A2E35"/>
<path d="M68.6606 156.996V365.266C68.6606 369.295 71.4756 370.882 74.9025 368.807L314.297 230.977C317.724 229.024 320.539 224.141 320.539 220.234V11.842C320.539 7.8133 317.724 6.22625 314.297 8.30163L74.9025 146.131C71.3532 148.206 68.6606 152.968 68.6606 156.996Z" fill="#2B454E"/>
<path d="M74.9027 376.009L249.92 476.726C253.347 478.679 258.977 478.679 262.404 476.726L501.799 338.897C505.226 336.943 505.226 333.647 501.799 331.694L326.781 230.977C323.355 229.024 317.725 229.024 314.298 230.977L74.9027 368.807C71.3534 370.882 71.3534 374.056 74.9027 376.009Z" fill="#375A64"/>
<path d="M78.2072 157.729L309.035 24.9045C311.115 23.6837 312.829 24.6603 312.829 27.1019V207.415C312.829 209.857 311.115 212.665 309.035 213.886L78.2072 346.71C76.1265 347.931 74.4131 346.954 74.4131 344.512V164.199C74.5355 161.879 76.1265 158.949 78.2072 157.729Z" fill="#4750E7"/>
<path opacity="0.9" d="M78.2072 157.729L309.035 24.9045C311.115 23.6837 312.829 24.6603 312.829 27.1019V207.415C312.829 209.857 311.115 212.665 309.035 213.886L78.2072 346.71C76.1265 347.931 74.4131 346.954 74.4131 344.512V164.199C74.5355 161.879 76.1265 158.949 78.2072 157.729Z" fill="white"/>
<path d="M95.2193 370.638L317.48 242.697C319.193 241.72 322.008 241.72 323.722 242.697L335.104 249.289C336.817 250.266 336.817 251.853 335.104 252.83L112.721 380.77C111.008 381.747 108.193 381.747 106.479 380.77L95.0969 374.3C93.5058 373.201 93.5058 371.614 95.2193 370.638Z" fill="#2B454E"/>
<path d="M124.471 387.485L345.018 260.521C346.731 259.544 349.546 259.544 351.259 260.521L421.144 300.807C422.858 301.784 422.858 303.371 421.144 304.348L200.842 431.19C199.129 432.166 196.314 432.166 194.6 431.19L124.471 391.025C122.757 390.171 122.757 388.461 124.471 387.485Z" fill="#1A2E35"/>
<path d="M323.721 317.166L330.698 313.138C330.942 313.016 330.942 312.649 330.698 312.527L322.62 307.888C322.253 307.766 321.763 307.644 321.518 307.888L314.542 311.917C314.297 312.039 314.297 312.405 314.542 312.527L322.62 317.166C322.865 317.288 323.354 317.288 323.721 317.166ZM309.891 301.174L302.915 305.202C302.67 305.324 302.67 305.691 302.915 305.813L310.993 310.452C311.36 310.574 311.849 310.696 312.094 310.452L319.07 306.423C319.315 306.301 319.315 305.935 319.07 305.813L310.993 301.174C310.748 301.052 310.258 301.052 309.891 301.174ZM287.494 314.114L275.744 320.951C275.5 321.073 275.5 321.439 275.744 321.561L283.822 326.2C284.189 326.322 284.679 326.444 284.924 326.2L296.673 319.364C296.918 319.242 296.918 318.875 296.673 318.753L288.595 314.114C288.228 313.992 287.739 313.992 287.494 314.114ZM299.733 307.034L292.757 311.062C292.512 311.184 292.512 311.551 292.757 311.673L300.834 316.312C301.201 316.434 301.691 316.556 301.936 316.312L308.912 312.283C309.157 312.161 309.157 311.795 308.912 311.673L300.834 307.034C300.59 306.912 300.1 306.912 299.733 307.034ZM272.44 322.782L265.464 326.811C265.219 326.933 265.219 327.299 265.464 327.421L273.541 332.06C273.909 332.182 274.398 332.304 274.643 332.06L281.619 328.032C281.864 327.909 281.864 327.543 281.619 327.421L273.541 322.782C273.297 322.66 272.807 322.66 272.44 322.782ZM262.281 328.642L255.305 332.671C255.06 332.793 255.06 333.159 255.305 333.281L263.383 337.92C263.75 338.042 264.24 338.164 264.484 337.92L271.461 333.891C271.706 333.769 271.706 333.403 271.461 333.281L263.383 328.642C263.138 328.52 262.649 328.398 262.281 328.642ZM293.98 347.442L300.957 343.414C301.201 343.292 301.201 342.925 300.957 342.803L292.879 338.164C292.512 338.042 292.022 337.92 291.777 338.164L284.801 342.193C284.556 342.315 284.556 342.681 284.801 342.803L292.879 347.442C293.124 347.687 293.613 347.687 293.98 347.442ZM283.822 353.302L290.798 349.274C291.043 349.152 291.043 348.785 290.798 348.663L282.721 344.024C282.353 343.902 281.864 343.78 281.619 344.024L274.643 348.053C274.398 348.175 274.398 348.541 274.643 348.663L282.721 353.302C282.965 353.424 283.455 353.546 283.822 353.302ZM273.664 359.162L280.64 355.133C280.885 355.011 280.885 354.645 280.64 354.523L272.562 349.884C272.195 349.762 271.706 349.64 271.461 349.884L264.484 353.913C264.24 354.035 264.24 354.401 264.484 354.523L272.562 359.162C272.807 359.284 273.297 359.406 273.664 359.162ZM263.505 365.022L270.482 360.993C270.726 360.871 270.726 360.505 270.482 360.383L262.404 355.744C262.037 355.622 261.547 355.5 261.302 355.744L254.326 359.773C254.081 359.895 254.081 360.261 254.326 360.383L262.404 365.022C262.649 365.144 263.138 365.266 263.505 365.022ZM313.563 323.026L320.539 318.998C320.784 318.875 320.784 318.509 320.539 318.387L312.461 313.748C312.094 313.626 311.605 313.504 311.36 313.748L304.384 317.777C304.139 317.899 304.139 318.265 304.384 318.387L312.461 323.026C312.706 323.148 313.196 323.148 313.563 323.026ZM304.139 341.582L319.682 332.671C319.927 332.549 319.927 332.182 319.682 332.06L300.1 320.829C299.733 320.707 299.243 320.585 298.998 320.829L290.921 325.468C290.676 325.59 290.676 325.956 290.921 326.078L301.324 332.06C301.691 332.182 301.691 332.549 301.324 332.671L294.96 336.333C294.715 336.455 294.715 336.821 294.96 336.943L303.037 341.582C303.282 341.827 303.772 341.827 304.139 341.582ZM252.123 334.502L245.147 338.53C244.902 338.653 244.902 339.019 245.147 339.141L253.225 343.78C253.592 343.902 254.081 344.024 254.326 343.78L261.302 339.751C261.547 339.629 261.547 339.263 261.302 339.141L253.225 334.502C252.98 334.38 252.49 334.258 252.123 334.502ZM241.965 340.362L234.988 344.39C234.744 344.512 234.744 344.879 234.988 345.001L243.066 349.64C243.433 349.762 243.923 349.884 244.168 349.64L251.144 345.611C251.389 345.489 251.389 345.123 251.144 345.001L243.066 340.362C242.821 340.24 242.209 340.118 241.965 340.362ZM191.173 406.041C191.54 406.163 192.03 406.285 192.274 406.041L199.251 402.013C199.495 401.89 199.495 401.524 199.251 401.402L191.173 396.763C190.806 396.641 190.316 396.519 190.071 396.763L183.095 400.792C182.85 400.914 182.85 401.28 183.095 401.402L191.173 406.041ZM160.575 387.241L153.599 391.269C153.354 391.392 153.354 391.758 153.599 391.88L161.677 396.519C162.044 396.763 162.534 396.763 162.778 396.519L169.755 392.49C169.999 392.368 169.999 392.002 169.755 391.88L161.677 387.241C161.432 386.997 160.943 386.997 160.575 387.241ZM176.976 400.914C177.343 401.036 177.832 401.158 178.077 400.914L185.053 396.885C185.298 396.763 185.298 396.397 185.053 396.275L176.976 391.636C176.608 391.514 176.119 391.392 175.874 391.636L168.898 395.664C168.653 395.786 168.653 396.153 168.898 396.275L176.976 400.914ZM209.164 409.582L216.14 405.553C216.385 405.431 216.385 405.065 216.14 404.943L208.063 400.303C207.696 400.181 207.206 400.059 206.961 400.303L199.985 404.332C199.74 404.454 199.74 404.82 199.985 404.943L208.063 409.582C208.307 409.704 208.797 409.704 209.164 409.582ZM197.782 415.441C198.149 415.564 198.639 415.686 198.883 415.441L205.86 411.413C206.104 411.291 206.104 410.924 205.86 410.802L197.782 406.163C197.415 406.041 196.925 405.919 196.68 406.163L189.704 410.192C189.459 410.314 189.459 410.68 189.704 410.802L197.782 415.441ZM170.734 381.381L163.757 385.41C163.513 385.532 163.513 385.898 163.757 386.02L171.835 390.659C172.202 390.781 172.692 390.903 172.937 390.659L179.913 386.63C180.158 386.508 180.158 386.142 179.913 386.02L171.835 381.381C171.59 381.137 171.101 381.137 170.734 381.381ZM221.648 352.081L214.672 356.11C214.427 356.232 214.427 356.598 214.672 356.721L222.749 361.36C223.117 361.482 223.606 361.604 223.851 361.36L230.827 357.331C231.072 357.209 231.072 356.843 230.827 356.721L222.749 352.081C222.382 351.837 221.893 351.837 221.648 352.081ZM180.892 375.521L173.916 379.55C173.671 379.672 173.671 380.038 173.916 380.16L181.994 384.799C182.361 384.921 182.85 385.043 183.095 384.799L190.071 380.77C190.316 380.648 190.316 380.282 190.071 380.16L181.994 375.521C181.749 375.277 181.259 375.277 180.892 375.521ZM231.806 346.222L224.83 350.25C224.585 350.372 224.585 350.739 224.83 350.861L232.908 355.5C233.275 355.622 233.765 355.744 234.009 355.5L240.986 351.471C241.23 351.349 241.23 350.983 240.986 350.861L232.908 346.222C232.541 345.977 232.051 345.977 231.806 346.222ZM211.49 357.941L204.513 361.97C204.269 362.092 204.269 362.458 204.513 362.58L212.591 367.219C212.958 367.342 213.448 367.464 213.693 367.219L220.669 363.191C220.914 363.069 220.914 362.702 220.669 362.58L212.591 357.941C212.224 357.697 211.734 357.697 211.49 357.941ZM201.331 363.801L194.355 367.83C194.11 367.952 194.11 368.318 194.355 368.44L202.433 373.079C202.8 373.201 203.289 373.324 203.534 373.079L210.51 369.051C210.755 368.929 210.755 368.562 210.51 368.44L202.433 363.801C202.066 363.557 201.576 363.557 201.331 363.801ZM191.173 369.661L184.197 373.69C183.952 373.812 183.952 374.178 184.197 374.3L192.274 378.939C192.642 379.061 193.131 379.183 193.376 378.939L200.352 374.911C200.597 374.789 200.597 374.422 200.352 374.3L192.274 369.661C191.907 369.417 191.418 369.417 191.173 369.661ZM243.066 376.742L250.042 372.713C250.287 372.591 250.287 372.225 250.042 372.103L241.965 367.464C241.598 367.342 241.108 367.219 240.863 367.464L233.887 371.492C233.642 371.614 233.642 371.981 233.887 372.103L241.965 376.742C242.332 376.864 242.821 376.864 243.066 376.742ZM332.411 288.233L325.435 292.262C325.19 292.384 325.19 292.75 325.435 292.872L333.512 297.511C333.88 297.633 334.369 297.755 334.614 297.511L341.59 293.483C341.835 293.361 341.835 292.994 341.59 292.872L333.512 288.233C333.268 288.111 332.778 288.111 332.411 288.233ZM320.172 295.314L313.196 299.342C312.951 299.465 312.951 299.831 313.196 299.953L321.273 304.592C321.641 304.714 322.13 304.836 322.375 304.592L329.351 300.563C329.596 300.441 329.596 300.075 329.351 299.953L321.273 295.314C320.906 295.192 320.417 295.192 320.172 295.314ZM342.569 282.373L335.593 286.402C335.348 286.524 335.348 286.89 335.593 287.012L343.671 291.651C344.038 291.773 344.528 291.896 344.772 291.651L351.749 287.623C351.993 287.501 351.993 287.134 351.749 287.012L343.671 282.373C343.426 282.251 342.936 282.251 342.569 282.373ZM289.942 336.577L296.918 332.549C297.163 332.426 297.163 332.06 296.918 331.938L288.84 327.299C288.473 327.177 287.983 327.055 287.739 327.299L280.762 331.328C280.518 331.45 280.518 331.816 280.762 331.938L288.84 336.577C289.207 336.699 289.697 336.699 289.942 336.577ZM353.829 276.513C353.462 276.391 352.973 276.269 352.728 276.513L345.751 280.542C345.507 280.664 345.507 281.03 345.751 281.152L353.829 285.792C354.196 286.036 354.686 286.036 354.931 285.792L361.907 281.763C362.152 281.641 362.152 281.275 361.907 281.152L353.829 276.513ZM253.225 370.882L260.201 366.853C260.446 366.731 260.446 366.365 260.201 366.243L252.123 361.604C251.756 361.482 251.266 361.36 251.022 361.604L244.045 365.632C243.801 365.755 243.801 366.121 244.045 366.243L252.123 370.882C252.49 371.004 252.98 371.004 253.225 370.882ZM377.94 299.098L384.916 295.07C385.161 294.948 385.161 294.581 384.916 294.459L376.839 289.82C376.471 289.698 375.982 289.576 375.737 289.82L368.761 293.849C368.516 293.971 368.516 294.337 368.761 294.459L376.839 299.098C377.206 299.22 377.695 299.22 377.94 299.098ZM356.277 298.366L363.253 294.337C363.498 294.215 363.498 293.849 363.253 293.727L355.176 289.088C354.808 288.966 354.319 288.844 354.074 289.088L347.098 293.116C346.853 293.238 346.853 293.605 347.098 293.727L355.176 298.366C355.543 298.488 356.032 298.488 356.277 298.366ZM365.334 283.228C364.967 283.106 364.477 282.984 364.232 283.228L357.256 287.256C357.011 287.379 357.011 287.745 357.256 287.867L365.334 292.506C365.701 292.628 366.191 292.75 366.435 292.506L373.412 288.477C373.656 288.355 373.656 287.989 373.412 287.867L365.334 283.228ZM367.537 281.885L387.119 293.116C387.486 293.238 387.976 293.361 388.221 293.116L395.197 289.088C395.442 288.966 395.442 288.599 395.197 288.477L375.615 277.246C375.247 277.124 374.758 277.002 374.513 277.246L367.537 281.275C367.17 281.519 367.17 281.763 367.537 281.885ZM343.916 294.826L336.939 298.854C336.695 298.976 336.695 299.343 336.939 299.465L345.017 304.104C345.384 304.226 345.874 304.348 346.119 304.104L353.095 300.075C353.34 299.953 353.34 299.587 353.095 299.465L345.017 294.826C344.65 294.703 344.16 294.703 343.916 294.826ZM267.422 338.897L260.446 342.925C260.201 343.047 260.201 343.414 260.446 343.536L268.523 348.175C268.891 348.297 269.38 348.419 269.625 348.175L276.601 344.146C276.846 344.024 276.846 343.658 276.601 343.536L268.523 338.897C268.156 338.775 267.667 338.775 267.422 338.897ZM366.68 304.958C367.047 305.08 367.537 305.202 367.782 304.958L374.758 300.93C375.003 300.807 375.003 300.441 374.758 300.319L366.68 295.68C366.313 295.558 365.823 295.436 365.579 295.68L358.602 299.709C358.358 299.831 358.358 300.197 358.602 300.319L366.68 304.958ZM277.58 333.037L270.604 337.066C270.359 337.188 270.359 337.554 270.604 337.676L278.682 342.315C279.049 342.437 279.538 342.559 279.783 342.315L286.759 338.286C287.004 338.164 287.004 337.798 286.759 337.676L278.682 333.037C278.315 332.915 277.825 332.915 277.58 333.037ZM201.331 400.181C201.698 400.303 202.188 400.425 202.433 400.181L209.409 396.153C209.654 396.031 209.654 395.664 209.409 395.542L201.331 390.903C200.964 390.781 200.475 390.659 200.23 390.903L193.253 394.932C193.009 395.054 193.009 395.42 193.253 395.542L201.331 400.181ZM186.032 385.776L179.056 389.804C178.811 389.927 178.811 390.293 179.056 390.415L187.134 395.054C187.501 395.176 187.991 395.298 188.235 395.054L195.212 391.025C195.457 390.903 195.457 390.537 195.212 390.415L187.134 385.776C186.767 385.654 186.277 385.654 186.032 385.776ZM212.591 394.321L219.567 390.293C219.812 390.171 219.812 389.804 219.567 389.682L211.49 385.043C211.122 384.921 210.633 384.799 210.388 385.043L203.412 389.072C203.167 389.194 203.167 389.56 203.412 389.682L211.49 394.321C211.857 394.444 212.346 394.444 212.591 394.321ZM222.749 388.462L229.726 384.433C229.97 384.311 229.97 383.945 229.726 383.822L221.648 379.183C221.281 379.061 220.791 378.939 220.546 379.183L213.57 383.212C213.325 383.334 213.325 383.7 213.57 383.822L221.648 388.462C222.015 388.584 222.505 388.584 222.749 388.462ZM232.908 382.602L239.884 378.573C240.129 378.451 240.129 378.085 239.884 377.963L231.806 373.324C231.439 373.201 230.95 373.079 230.705 373.324L223.729 377.352C223.484 377.474 223.484 377.841 223.729 377.963L231.806 382.602C232.174 382.724 232.663 382.724 232.908 382.602ZM196.191 379.916L189.215 383.945C188.97 384.067 188.97 384.433 189.215 384.555L197.292 389.194C197.66 389.316 198.149 389.438 198.394 389.194L205.37 385.165C205.615 385.043 205.615 384.677 205.37 384.555L197.292 379.916C196.925 379.794 196.436 379.794 196.191 379.916ZM206.349 374.056L199.373 378.085C199.128 378.207 199.128 378.573 199.373 378.695L207.451 383.334C207.818 383.456 208.307 383.578 208.552 383.334L215.528 379.306C215.773 379.183 215.773 378.817 215.528 378.695L207.451 374.056C207.206 373.934 206.716 373.934 206.349 374.056ZM246.983 350.617L240.006 354.645C239.762 354.767 239.762 355.133 240.006 355.256L248.084 359.895C248.451 360.017 248.941 360.139 249.186 359.895L256.162 355.866C256.407 355.744 256.407 355.378 256.162 355.256L248.084 350.617C247.839 350.494 247.35 350.494 246.983 350.617ZM236.824 356.476L229.848 360.505C229.603 360.627 229.603 360.993 229.848 361.115L237.926 365.755C238.293 365.877 238.783 365.999 239.027 365.755L246.004 361.726C246.248 361.604 246.248 361.238 246.004 361.115L237.926 356.476C237.681 356.354 237.192 356.354 236.824 356.476ZM257.263 344.757L250.287 348.785C250.042 348.907 250.042 349.274 250.287 349.396L258.365 354.035C258.732 354.157 259.222 354.279 259.466 354.035L266.443 350.006C266.688 349.884 266.688 349.518 266.443 349.396L258.365 344.757C257.998 344.635 257.508 344.635 257.263 344.757ZM216.508 368.196L209.531 372.225C209.287 372.347 209.287 372.713 209.531 372.835L217.609 377.474C217.976 377.596 218.466 377.718 218.711 377.474L225.687 373.446C225.932 373.324 225.932 372.957 225.687 372.835L217.609 368.196C217.364 368.074 216.875 368.074 216.508 368.196ZM226.666 362.336L219.69 366.365C219.445 366.487 219.445 366.853 219.69 366.975L227.767 371.614C228.135 371.736 228.624 371.859 228.869 371.614L235.845 367.586C236.09 367.464 236.09 367.097 235.845 366.975L227.767 362.336C227.523 362.214 227.033 362.214 226.666 362.336ZM219.323 403.722L226.299 399.693C226.544 399.571 226.544 399.205 226.299 399.083L218.221 394.444C217.854 394.321 217.364 394.199 217.12 394.444L210.143 398.472C209.899 398.594 209.899 398.961 210.143 399.083L218.221 403.722C218.466 403.844 218.955 403.844 219.323 403.722ZM159.596 397.74L151.518 393.101C151.151 392.979 150.662 392.856 150.417 393.101L143.441 397.129C143.196 397.251 143.196 397.618 143.441 397.74L151.518 402.379C151.886 402.501 152.375 402.623 152.62 402.379L159.596 398.35C159.963 398.228 159.963 397.862 159.596 397.74ZM174.895 402.135L166.817 397.496C166.45 397.373 165.96 397.251 165.716 397.496L155.068 403.6C154.823 403.722 154.823 404.088 155.068 404.21L163.146 408.849C163.513 408.971 164.002 409.093 164.247 408.849L174.895 402.745C175.14 402.623 175.14 402.379 174.895 402.135ZM147.235 388.706L139.157 384.067C138.79 383.945 138.3 383.823 138.056 384.067L129.488 388.95C129.243 389.072 129.243 389.438 129.488 389.56L137.566 394.199C137.933 394.321 138.423 394.444 138.668 394.199L147.235 389.316C147.602 389.194 147.602 388.95 147.235 388.706ZM153.844 384.921C154.211 385.043 154.701 385.165 154.945 384.921L161.922 380.893C162.166 380.77 162.166 380.404 161.922 380.282L153.844 375.643C153.477 375.521 152.987 375.399 152.742 375.643L145.766 379.672C145.521 379.794 145.521 380.16 145.766 380.282L153.844 384.921ZM188.97 407.262L180.892 402.623C180.525 402.501 180.035 402.379 179.791 402.623L166.45 410.314C166.205 410.436 166.205 410.802 166.45 410.924L174.528 415.564C174.895 415.686 175.385 415.808 175.629 415.564L188.97 407.872C189.337 407.75 189.337 407.384 188.97 407.262ZM195.701 416.662L187.624 412.023C187.256 411.901 186.767 411.779 186.522 412.023L177.955 416.906C177.71 417.029 177.71 417.395 177.955 417.517L186.032 422.156C186.4 422.278 186.889 422.4 187.134 422.156L195.701 417.273C196.068 417.151 195.946 416.784 195.701 416.662ZM229.481 341.46C229.848 341.583 230.338 341.705 230.582 341.46L237.559 337.432C237.803 337.31 237.803 336.943 237.559 336.821L229.481 332.182C229.114 331.938 228.624 331.938 228.379 332.182L221.403 336.211C221.158 336.333 221.158 336.699 221.403 336.821L229.481 341.46ZM209.042 353.18C209.409 353.302 209.899 353.424 210.143 353.18L217.12 349.152C217.364 349.029 217.364 348.663 217.12 348.541L209.042 343.902C208.675 343.78 208.185 343.658 207.94 343.902L200.964 347.931C200.719 348.053 200.719 348.419 200.964 348.541L209.042 353.18ZM164.002 379.061C164.369 379.183 164.859 379.306 165.104 379.061L172.08 375.033C172.325 374.911 172.325 374.544 172.08 374.422L164.002 369.905C163.635 369.783 163.146 369.661 162.901 369.905L155.925 373.934C155.68 374.056 155.68 374.422 155.925 374.544L164.002 379.061ZM219.323 347.32C219.69 347.564 220.179 347.564 220.424 347.32L227.4 343.292C227.645 343.17 227.645 342.803 227.4 342.681L219.323 338.042C218.955 337.92 218.466 337.798 218.221 338.042L211.245 342.071C211 342.193 211 342.559 211.245 342.681L219.323 347.32ZM198.883 359.04C199.251 359.162 199.74 359.284 199.985 359.04L206.961 355.011C207.206 354.889 207.206 354.523 206.961 354.401L198.883 349.762C198.516 349.64 198.027 349.518 197.782 349.762L190.806 353.791C190.561 353.913 190.561 354.279 190.806 354.401L198.883 359.04ZM201.331 417.395C200.964 417.273 200.475 417.151 200.23 417.395L189.582 423.499C189.337 423.621 189.337 423.987 189.582 424.109L197.66 428.748C198.027 428.87 198.516 428.992 198.761 428.748L209.409 422.644C209.654 422.522 209.654 422.156 209.409 422.034L201.331 417.395ZM184.319 367.342C184.686 367.464 185.176 367.586 185.421 367.342L192.397 363.313C192.642 363.191 192.642 362.825 192.397 362.703L184.319 358.063C183.952 357.941 183.462 357.819 183.217 358.063L176.241 362.092C175.996 362.214 175.996 362.58 176.241 362.703L184.319 367.342ZM174.161 373.201C174.528 373.324 175.017 373.446 175.262 373.201L182.238 369.173C182.483 369.051 182.483 368.684 182.238 368.562L174.161 363.923C173.793 363.679 173.304 363.679 173.059 363.923L166.083 367.952C165.838 368.074 165.838 368.44 166.083 368.562L174.161 373.201ZM389.689 308.865C389.322 308.743 388.833 308.621 388.588 308.865L371.453 318.753C371.209 318.875 371.209 319.242 371.453 319.364L379.531 324.003C379.898 324.125 380.388 324.247 380.633 324.003L397.767 314.114C398.012 313.992 398.012 313.626 397.767 313.504L389.689 308.865ZM367.17 321.805C366.803 321.683 366.313 321.561 366.068 321.805L359.092 325.834C358.847 325.956 358.847 326.322 359.092 326.444L367.17 331.084C367.537 331.206 368.026 331.328 368.271 331.084L375.247 327.055C375.492 326.933 375.492 326.567 375.247 326.444L367.17 321.805ZM229.481 397.862L236.457 393.833C236.702 393.711 236.702 393.345 236.457 393.223L228.379 388.584C228.012 388.462 227.523 388.339 227.278 388.584L220.302 392.612C220.057 392.734 220.057 393.101 220.302 393.223L228.379 397.862C228.624 397.984 229.114 397.984 229.481 397.862ZM346.853 333.525C346.486 333.403 345.996 333.281 345.751 333.525L338.775 337.554C338.53 337.676 338.53 338.042 338.775 338.164L346.853 342.803C347.22 342.925 347.71 343.047 347.954 342.803L354.931 338.775C355.176 338.653 355.176 338.286 354.931 338.164L346.853 333.525ZM399.848 303.005C399.481 302.883 398.991 302.761 398.746 303.005L391.77 307.034C391.525 307.156 391.525 307.522 391.77 307.644L399.848 312.283C400.215 312.405 400.705 312.527 400.949 312.283L407.926 308.254C408.17 308.132 408.17 307.766 407.926 307.644L399.848 303.005ZM418.084 301.784L398.502 290.553C398.134 290.431 397.645 290.309 397.4 290.553L390.424 294.581C390.179 294.703 390.179 295.07 390.424 295.192L410.006 306.423C410.373 306.545 410.863 306.667 411.108 306.423L418.084 302.395C418.451 302.272 418.329 302.028 418.084 301.784ZM308.912 355.378C308.545 355.256 308.055 355.133 307.811 355.378L299.243 360.261C298.998 360.383 298.998 360.749 299.243 360.871L307.321 365.51C307.688 365.632 308.178 365.755 308.423 365.51L316.99 360.627C317.235 360.505 317.235 360.139 316.99 360.017L308.912 355.378ZM334.492 340.606C334.124 340.484 333.635 340.362 333.39 340.606L322.742 346.71C322.497 346.832 322.497 347.198 322.742 347.32L330.82 351.959C331.187 352.081 331.677 352.204 331.921 351.959L342.569 345.855C342.814 345.733 342.814 345.367 342.569 345.245L334.492 340.606ZM285.291 369.051C284.924 368.929 284.434 368.807 284.189 369.051L226.911 402.013C226.666 402.135 226.666 402.501 226.911 402.623L234.988 407.262C235.356 407.384 235.845 407.506 236.09 407.262L293.369 374.3C293.613 374.178 293.613 373.812 293.369 373.69L285.291 369.051ZM224.83 403.844C224.463 403.722 223.973 403.6 223.729 403.844L215.161 408.727C214.917 408.849 214.917 409.215 215.161 409.337L223.239 413.976C223.606 414.099 224.096 414.221 224.341 413.976L232.908 409.093C233.153 408.971 233.153 408.605 232.908 408.483L224.83 403.844ZM297.04 362.214C296.673 362.092 296.184 361.97 295.939 362.214L287.371 367.097C287.127 367.22 287.127 367.586 287.371 367.708L295.449 372.347C295.816 372.591 296.306 372.591 296.551 372.347L305.118 367.464C305.363 367.342 305.363 366.975 305.118 366.853L297.04 362.214ZM213.081 410.558C212.714 410.436 212.224 410.314 211.979 410.558L203.412 415.441C203.167 415.564 203.167 415.93 203.412 416.052L211.49 420.691C211.857 420.813 212.346 420.935 212.591 420.691L221.158 415.808C221.403 415.686 221.403 415.319 221.158 415.197L213.081 410.558ZM320.662 348.663C320.294 348.419 319.805 348.419 319.56 348.663L310.993 353.546C310.748 353.669 310.748 354.035 310.993 354.157L319.07 358.796C319.438 358.918 319.927 359.04 320.172 358.796L328.739 353.913C328.984 353.791 328.984 353.424 328.739 353.302L320.662 348.663ZM357.011 327.665C356.644 327.543 356.155 327.421 355.91 327.665L348.934 331.694C348.689 331.816 348.689 332.182 348.934 332.304L357.011 336.943C357.379 337.066 357.868 337.188 358.113 336.943L365.089 332.915C365.334 332.793 365.334 332.426 365.089 332.304L357.011 327.665ZM379.286 311.551L386.263 307.522C386.507 307.4 386.507 307.034 386.263 306.912L378.185 302.272C377.818 302.15 377.328 302.028 377.083 302.272L370.107 306.301C369.862 306.423 369.862 306.789 370.107 306.912L378.185 311.551C378.552 311.673 379.042 311.673 379.286 311.551ZM333.88 311.306L340.856 307.278C341.101 307.156 341.101 306.789 340.856 306.667L332.778 302.028C332.411 301.906 331.921 301.784 331.677 302.028L324.7 306.057C324.456 306.179 324.456 306.545 324.7 306.667L332.778 311.306C333.023 311.429 333.512 311.429 333.88 311.306ZM310.748 350.983L331.065 339.263C331.309 339.141 331.309 338.775 331.065 338.653L322.987 334.013C322.62 333.891 322.13 333.769 321.885 334.013L301.569 345.733C301.324 345.855 301.324 346.222 301.569 346.344L309.646 350.983C310.014 351.105 310.503 351.227 310.748 350.983ZM368.026 317.41C368.394 317.533 368.883 317.655 369.128 317.41L376.104 313.382C376.349 313.26 376.349 312.893 376.104 312.771L368.026 308.132C367.659 308.01 367.17 307.888 366.925 308.132L359.949 312.161C359.704 312.283 359.704 312.649 359.949 312.771L368.026 317.41ZM357.623 310.818L364.6 306.789C364.844 306.667 364.844 306.301 364.6 306.179L356.522 301.54C356.155 301.418 355.665 301.296 355.42 301.54L348.444 305.569C348.199 305.691 348.199 306.057 348.444 306.179L356.522 310.818C356.889 310.94 357.379 310.94 357.623 310.818ZM300.59 356.843L307.566 352.814C307.811 352.692 307.811 352.326 307.566 352.204L299.488 347.564C299.121 347.442 298.631 347.32 298.387 347.564L291.41 351.593C291.166 351.715 291.166 352.081 291.41 352.204L299.488 356.843C299.855 356.965 300.345 357.087 300.59 356.843ZM345.507 330.351C345.874 330.473 346.363 330.595 346.608 330.351L353.584 326.322C353.829 326.2 353.829 325.834 353.584 325.712L345.507 321.073C345.139 320.951 344.65 320.829 344.405 321.073L337.429 325.102C337.184 325.224 337.184 325.59 337.429 325.712L345.507 330.351ZM249.798 386.142L256.774 382.113C257.019 381.991 257.019 381.625 256.774 381.503L248.696 376.864C248.329 376.62 247.839 376.62 247.595 376.864L240.618 380.893C240.374 381.015 240.374 381.381 240.618 381.503L248.696 386.142C248.941 386.264 249.431 386.264 249.798 386.142ZM259.956 380.282L266.932 376.253C267.177 376.131 267.177 375.765 266.932 375.643L258.855 371.004C258.487 370.882 257.998 370.76 257.753 371.004L250.777 375.033C250.532 375.155 250.532 375.521 250.777 375.643L258.855 380.282C259.222 380.404 259.711 380.404 259.956 380.282ZM239.639 392.002L246.616 387.973C246.86 387.851 246.86 387.485 246.616 387.363L238.538 382.724C238.171 382.602 237.681 382.48 237.436 382.724L230.46 386.752C230.215 386.875 230.215 387.241 230.46 387.363L238.538 392.002C238.783 392.124 239.272 392.124 239.639 392.002ZM280.273 368.562L287.249 364.534C287.494 364.412 287.494 364.045 287.249 363.923L279.171 359.284C278.804 359.162 278.315 359.04 278.07 359.284L271.094 363.313C270.849 363.435 270.849 363.801 271.094 363.923L279.171 368.562C279.538 368.684 280.028 368.684 280.273 368.562ZM270.114 374.422L277.091 370.394C277.335 370.272 277.335 369.905 277.091 369.783L269.013 365.144C268.646 365.022 268.156 364.9 267.911 365.144L260.935 369.173C260.69 369.295 260.69 369.661 260.935 369.783L269.013 374.422C269.38 374.544 269.87 374.544 270.114 374.422ZM290.431 362.703L297.407 358.674C297.652 358.552 297.652 358.185 297.407 358.063L289.33 353.424C288.962 353.302 288.473 353.18 288.228 353.424L281.252 357.453C281.007 357.575 281.007 357.941 281.252 358.063L289.33 362.703C289.697 362.825 290.186 362.947 290.431 362.703ZM336.939 276.025C337.307 276.147 337.796 276.269 338.041 276.025L345.017 271.996C345.262 271.874 345.262 271.508 345.017 271.386L342.937 270.165C342.569 270.043 342.08 269.921 341.835 270.165L334.859 274.194C334.614 274.316 334.614 274.682 334.859 274.804L336.939 276.025ZM287.004 308.254C287.371 308.376 287.861 308.499 288.106 308.254L295.082 304.226C295.327 304.104 295.327 303.737 295.082 303.615L287.004 298.976C286.637 298.732 286.148 298.732 285.903 298.976L278.927 303.005C278.682 303.127 278.682 303.493 278.927 303.615L287.004 308.254ZM307.321 296.535C307.688 296.657 308.178 296.779 308.423 296.535L315.399 292.506C315.644 292.384 315.644 292.018 315.399 291.896L307.321 287.256C306.954 287.134 306.464 287.012 306.219 287.256L299.243 291.285C298.998 291.407 298.998 291.773 299.243 291.896L307.321 296.535ZM274.52 315.457C274.888 315.579 275.377 315.701 275.622 315.457L282.598 311.429C282.843 311.306 282.843 310.94 282.598 310.818L274.52 306.179C274.153 306.057 273.664 305.935 273.419 306.179L266.443 310.208C266.198 310.33 266.198 310.696 266.443 310.818L274.52 315.457ZM297.163 302.395C297.53 302.517 298.019 302.639 298.264 302.395L305.24 298.366C305.485 298.244 305.485 297.878 305.24 297.755L297.163 293.116C296.795 292.994 296.306 292.872 296.061 293.116L289.085 297.145C288.84 297.267 288.84 297.633 289.085 297.755L297.163 302.395ZM254.204 327.177C254.571 327.299 255.06 327.421 255.305 327.177L262.281 323.148C262.526 323.026 262.526 322.66 262.281 322.538L254.204 317.899C253.837 317.777 253.347 317.655 253.102 317.899L246.126 321.927C245.881 322.05 245.881 322.416 246.126 322.538L254.204 327.177ZM264.362 321.317C264.729 321.439 265.219 321.561 265.464 321.317L272.44 317.288C272.685 317.166 272.685 316.8 272.44 316.678L264.362 312.039C263.995 311.917 263.505 311.795 263.261 312.039L256.284 316.068C256.04 316.19 256.04 316.556 256.284 316.678L264.362 321.317ZM316.623 287.745C316.99 287.867 317.479 287.989 317.724 287.745L324.7 283.716C324.945 283.594 324.945 283.228 324.7 283.106L322.497 281.885C322.13 281.763 321.641 281.641 321.396 281.885L314.42 285.914C314.175 286.036 314.175 286.402 314.42 286.524L316.623 287.745ZM347.098 270.165C347.465 270.287 347.954 270.409 348.199 270.165L355.176 266.136C355.42 266.014 355.42 265.648 355.176 265.526L353.095 264.305C352.728 264.183 352.238 264.061 351.993 264.305L345.017 268.334C344.772 268.456 344.772 268.822 345.017 268.944L347.098 270.165ZM364.11 279.932C364.477 280.054 364.967 280.176 365.211 279.932L372.188 275.903C372.433 275.781 372.433 275.415 372.188 275.293L364.11 270.653C363.743 270.409 363.253 270.409 363.008 270.653L356.032 274.682C355.787 274.804 355.787 275.17 356.032 275.293L364.11 279.932ZM389.445 305.691L396.421 301.662C396.666 301.54 396.666 301.174 396.421 301.052L388.343 296.413C387.976 296.29 387.486 296.168 387.242 296.413L380.265 300.441C380.021 300.563 380.021 300.93 380.265 301.052L388.343 305.691C388.71 305.813 389.2 305.813 389.445 305.691ZM326.781 281.885C327.148 282.007 327.638 282.129 327.883 281.885L334.859 277.856C335.104 277.734 335.104 277.368 334.859 277.246L332.778 276.025C332.411 275.781 331.921 275.781 331.677 276.025L324.7 280.054C324.456 280.176 324.456 280.542 324.7 280.664L326.781 281.885ZM244.045 333.037C244.413 333.159 244.902 333.281 245.147 333.037L252.123 329.008C252.368 328.886 252.368 328.52 252.123 328.398L244.045 323.759C243.678 323.515 243.189 323.515 242.944 323.759L235.968 327.787C235.723 327.909 235.723 328.276 235.968 328.398L244.045 333.037Z" fill="#375A64"/>
<path d="M289.085 393.955L357.746 354.401C359.826 353.18 363.131 353.18 365.211 354.401L404.621 377.108C406.702 378.329 406.702 380.282 404.621 381.381L335.96 420.935C333.88 422.156 330.575 422.156 328.494 420.935L289.085 398.228C287.004 397.007 287.004 395.054 289.085 393.955Z" fill="#1A2E35"/>
<path d="M250.9 183.854L261.67 165.175L221.404 141.858C214.672 137.951 205.37 138.562 195.09 144.544C174.528 156.386 157.761 185.319 157.761 209.002C157.761 220.844 161.922 229.268 168.776 233.175L209.409 256.614L220.424 237.447C235.968 225.117 248.452 203.509 250.9 183.854Z" fill="#375A64"/>
<path d="M235.478 167.861C214.917 179.703 198.149 208.636 198.149 232.32C198.149 256.004 214.917 265.648 235.478 253.806C256.04 241.964 272.807 213.031 272.807 189.347C272.807 165.664 256.04 156.019 235.478 167.861Z" fill="#1A2E35"/>
<path d="M273.419 195.94L283.578 178.238L263.506 166.64C257.141 162.978 248.329 163.588 238.538 169.082C218.956 180.314 203.167 207.66 203.167 230.123C203.167 241.354 207.084 249.289 213.571 252.952L234.01 264.671L244.413 246.481C259.222 235.006 271.094 214.496 273.419 195.94Z" fill="#F5F5F5"/>
<path d="M204.146 219.257C203.412 222.92 203.045 226.582 203.045 230.123C203.045 241.354 206.961 249.289 213.448 252.952L233.887 264.671L244.29 246.481C245.27 245.749 246.249 244.894 247.228 244.04L204.146 219.257Z" fill="#ECECEC"/>
<path d="M258.733 180.802C239.15 192.033 223.362 219.379 223.362 241.842C223.362 264.305 239.15 273.461 258.733 262.23C278.315 250.998 294.103 223.652 294.103 201.189C294.103 178.604 278.315 169.57 258.733 180.802Z" fill="#E1E1E1"/>
<path d="M432.527 321.073C428.243 324.247 418.696 321.683 418.085 321.561C418.574 321.805 426.04 325.224 427.876 332.671C428.61 335.478 426.407 338.775 424.326 340.117C417.717 344.634 407.926 339.995 402.663 337.065C402.663 337.065 406.213 340.484 407.437 344.39C408.416 347.564 407.804 350.983 405.356 352.692C399.971 356.232 392.627 356.476 368.639 342.193C368.639 342.193 370.108 344.146 370.352 346.466C370.352 346.588 370.352 346.71 370.352 346.832C370.352 347.564 370.23 348.297 369.863 349.029C369.74 349.396 369.496 349.762 369.129 350.006C368.394 350.739 367.415 351.471 365.824 352.081C357.746 355.011 336.083 340.972 321.396 331.938C306.71 322.904 285.903 308.01 275.623 298.488C260.569 284.571 262.894 278.1 248.33 266.503C244.903 263.695 240.374 260.643 234.622 257.225C234.255 256.98 228.87 253.806 224.463 250.998C223.852 248.313 223.484 245.261 223.484 241.964C223.484 240.255 223.607 238.546 223.729 236.837C225.81 215.473 240.741 191.301 258.855 180.924C262.16 179.093 265.342 177.75 268.279 176.895C273.052 179.825 279.661 184.098 280.029 184.342C285.047 187.76 289.085 189.958 293.002 191.545C295.205 192.522 297.408 193.254 299.611 193.865C306.22 195.94 328.005 200.945 340.367 205.584C352.728 210.101 364.233 215.351 369.006 218.403C373.779 221.455 386.753 237.447 395.565 244.04C404.377 250.632 405.356 256.004 397.645 257.469C390.057 258.934 378.797 258.567 369.496 251.609C360.194 244.65 357.134 242.209 353.952 242.453C350.77 242.697 357.746 248.801 362.03 252.83C364.6 255.149 367.66 258.934 369.74 261.619C371.821 264.305 374.147 266.869 376.594 269.188C381.612 273.828 389.935 281.274 397.89 286.036C410.252 293.605 424.449 301.54 429.712 306.423C434.974 311.184 436.933 317.777 432.527 321.073Z" fill="#FFAAA8"/>
<path d="M430.935 317.288C427.998 318.998 423.836 318.387 417.105 315.946C410.374 313.504 394.096 305.08 388.099 301.662C384.672 299.709 371.576 292.018 360.806 285.792C360.071 285.425 359.459 286.402 360.071 286.89C369.495 293.361 381 301.174 386.14 304.348C397.645 311.429 407.069 316.068 417.962 321.561C417.962 321.561 427.998 324.369 432.404 321.073C435.219 318.998 435.464 315.457 433.872 311.917C433.995 311.917 433.995 315.579 430.935 317.288Z" fill="#FF9090"/>
<path d="M422.857 337.676C417.35 339.263 408.171 334.502 404.499 332.67C400.827 330.839 375.37 317.166 371.086 314.603C365.824 311.428 356.4 305.813 346.608 299.953C345.14 299.098 343.793 301.174 345.262 302.15C357.868 310.696 372.922 319.12 380.266 323.148C390.424 328.764 396.788 332.915 402.663 337.31C407.926 340.117 417.717 344.879 424.326 340.362C426.284 339.019 428.487 335.723 427.875 332.915C427.753 332.67 427.631 336.211 422.857 337.676Z" fill="#FF9090"/>
<path d="M405.356 352.692C407.559 351.227 408.293 348.297 407.681 345.367C407.681 345.611 407.436 349.396 403.275 350.128C398.991 350.861 395.075 349.762 389.812 347.931C384.427 345.977 368.271 335.845 363.131 333.037C359.827 331.205 340.978 319.364 327.148 310.696C326.292 310.208 326.169 311.306 327.026 311.917C337.307 318.631 342.814 322.782 347.465 325.956C356.155 332.06 364.477 337.31 368.639 342.193C392.627 356.476 399.971 356.11 405.356 352.692Z" fill="#FF9090"/>
<path d="M370.352 346.832C370.352 347.564 370.23 348.297 369.863 349.029C369.74 349.396 369.496 349.762 369.129 350.006C368.394 350.738 367.415 351.471 365.824 352.081C357.746 355.011 336.083 340.972 321.396 331.938C306.71 322.904 285.903 308.01 275.623 298.488C260.569 284.571 262.894 278.1 248.33 266.503C244.903 263.695 240.374 260.643 234.622 257.224C234.255 256.98 228.87 253.806 224.463 250.998C223.852 248.313 223.484 245.26 223.484 241.964C223.484 240.255 223.607 238.546 223.729 236.837C237.804 245.505 254.816 255.149 260.324 260.521C260.569 260.765 260.691 260.887 260.936 261.131C268.034 268.212 270.727 275.537 275.623 286.89C280.763 298.61 301.08 311.062 321.396 325.346C341.713 339.629 355.543 347.686 362.152 349.518C363.376 349.884 364.355 350.006 365.334 350.006C369.006 350.006 370.23 347.564 370.475 346.588C370.352 346.588 370.352 346.71 370.352 346.832Z" fill="#FF9090"/>
<path d="M271.216 178.726C270.237 178.116 269.136 177.384 268.157 176.773C265.097 177.506 261.915 178.849 258.733 180.802C240.619 191.179 225.81 215.351 223.607 236.715C223.362 238.424 223.362 240.133 223.362 241.842C223.362 245.139 223.729 248.191 224.341 250.876C228.869 253.684 234.132 256.98 234.499 257.102C236.213 258.079 237.804 259.178 239.273 260.032C239.517 255.76 239.762 251.243 239.884 246.603C241.843 193.865 271.216 178.726 271.216 178.726Z" fill="#FF9090"/>
<path opacity="0.5" d="M362.029 252.707C357.746 248.801 350.77 242.575 353.952 242.453C346.731 242.819 338.775 251.365 318.948 252.952C299.121 254.539 280.64 245.749 280.64 245.749C280.64 245.749 298.509 256.004 300.957 272.118C302.426 281.763 299.488 291.285 309.402 291.651C319.683 292.017 329.107 286.89 340.978 269.555C350.647 255.515 363.498 255.393 371.086 263.328C370.719 262.84 370.107 262.23 369.618 261.497C367.659 258.811 364.6 255.027 362.029 252.707Z" fill="#FF9090"/>
<path d="M367.17 275.048C362.03 284.693 339.265 308.743 316.868 313.504C316.868 313.504 333.513 314.48 348.689 301.784C363.988 289.088 367.17 275.048 367.17 275.048Z" fill="#FF9090"/>
<path d="M392.138 114.634L396.544 105.6L375.86 93.636C373.657 92.2931 371.209 91.3165 368.639 90.584C367.783 90.3398 366.926 90.2177 365.947 89.9736C361.785 89.2411 357.257 89.3632 352.606 90.3398C351.015 90.7061 349.424 91.0723 347.833 91.6827C346.242 92.171 344.528 92.9035 342.815 93.636C340.734 94.6126 338.531 95.5893 336.451 96.9322C334.248 98.2751 331.922 99.74 329.719 101.327C328.128 102.548 326.415 103.769 324.824 105.112C301.202 125.011 282.599 160.414 277.948 194.475C277.581 196.794 277.336 199.114 277.214 201.433C276.969 204.73 276.847 208.026 276.847 211.2C276.847 213.886 276.969 216.449 277.214 218.891C277.336 221.088 277.581 223.042 277.948 225.117C278.315 227.07 278.683 229.024 279.05 230.855C280.396 236.349 282.232 241.232 284.557 245.505C285.047 246.359 285.536 247.336 286.148 248.19C288.596 251.853 291.411 254.905 294.593 257.224C295.572 257.957 296.674 258.689 297.653 259.3L317.358 270.653L321.397 262.352C322.498 262.108 323.477 261.864 324.579 261.497C328.618 260.276 332.779 258.445 337.063 256.004C339.51 254.539 341.958 252.952 344.406 251.12C347.466 248.801 350.525 246.237 353.463 243.429C373.168 224.507 388.711 194.963 394.341 165.42C395.198 161.025 395.81 156.63 396.177 152.357C396.544 148.694 396.667 145.154 396.667 141.614C396.667 136.12 396.177 131.115 395.443 126.354C394.586 122.203 393.484 118.174 392.138 114.634Z" fill="#FED425"/>
<path opacity="0.25" d="M282.231 174.454L322.498 197.649L327.638 182.999L287.372 159.804C285.414 164.565 283.7 169.448 282.231 174.454Z" fill="white"/>
<path opacity="0.25" d="M375.86 93.636C373.534 92.4152 371.209 91.3165 368.639 90.706C367.782 90.4619 366.925 90.3398 365.946 90.0956C361.785 89.3632 357.256 89.4852 352.606 90.4619C351.994 90.584 351.382 90.706 350.892 90.8281L392.26 114.756V114.634L396.666 105.6L375.86 93.636Z" fill="white"/>
<path opacity="0.25" d="M373.412 150.892L378.553 144.788L318.949 110.605C317.113 112.436 315.277 114.39 313.563 116.343L373.412 150.892Z" fill="white"/>
<path opacity="0.25" d="M301.202 132.58L352.973 162.367L358.481 147.962L310.137 120.127C307.077 124.156 304.017 128.307 301.202 132.58Z" fill="white"/>
<path opacity="0.4" d="M375.86 93.636C373.534 92.4152 371.209 91.3165 368.639 90.706C367.782 90.4619 366.925 90.3398 365.946 90.0956C361.785 89.3632 357.257 89.4852 352.606 90.4619C351.015 90.8281 349.424 91.1944 347.833 91.8048C346.241 92.2931 344.528 93.0256 342.815 93.7581C340.734 94.7347 338.531 95.7114 336.45 97.0543C334.247 98.3971 331.922 99.8621 329.719 101.449C328.128 102.67 326.414 103.891 324.823 105.234C302.793 123.79 285.169 155.775 279.049 187.638L361.295 235.006C377.206 216.327 389.323 190.934 394.218 165.542C395.075 161.147 395.687 156.752 396.054 152.479C396.421 148.817 396.544 145.276 396.544 141.736C396.544 136.242 396.054 131.237 395.32 126.476C394.586 122.203 393.606 118.296 392.26 114.756L396.666 105.722L375.86 93.636Z" fill="white"/>
<path opacity="0.1" d="M317.235 270.653L321.274 262.352C322.376 262.108 323.355 261.864 324.456 261.497C328.495 260.277 332.656 258.445 336.94 256.004C339.388 254.539 341.836 252.952 344.283 251.121C347.343 248.801 350.403 246.237 353.34 243.429C356.155 240.744 358.725 237.936 361.296 234.884L279.05 187.516C278.56 189.836 278.193 192.155 277.826 194.597C277.458 196.917 277.214 199.236 277.091 201.556C276.846 204.852 276.724 208.148 276.724 211.322C276.724 214.008 276.846 216.572 277.091 219.013C277.214 221.211 277.458 223.164 277.826 225.239C278.193 227.193 278.56 229.146 278.927 230.977C280.273 236.471 282.109 241.354 284.435 245.627C284.924 246.481 285.414 247.458 286.026 248.313C288.474 251.975 291.289 255.027 294.471 257.347C295.45 258.079 296.551 258.812 297.53 259.422L317.235 270.653Z" fill="black"/>
<path opacity="0.1" d="M284.435 245.627C284.924 246.481 285.414 247.458 286.026 248.312C288.474 251.975 291.289 255.027 294.471 257.346C295.45 258.079 296.551 258.811 297.531 259.422L317.235 270.775L321.274 262.474H321.397L321.641 259.056L280.029 235.006C281.13 238.912 282.599 242.453 284.435 245.627Z" fill="black"/>
<path d="M415.637 138.073C414.658 132.458 413.189 127.33 411.231 122.935C408.293 116.343 404.377 111.216 399.604 107.553C396.422 105.112 392.872 103.402 389.078 102.426C388.221 102.182 387.365 102.06 386.386 101.815C382.224 101.083 377.696 101.205 373.045 102.182C371.454 102.548 369.863 102.914 368.272 103.525C366.681 104.013 364.967 104.745 363.254 105.478C361.173 106.454 358.97 107.431 356.89 108.774C354.687 110.117 352.361 111.582 350.158 113.169C348.567 114.39 346.854 115.611 345.263 116.953C321.641 136.853 303.038 172.256 298.387 206.317C298.02 208.636 297.775 210.956 297.653 213.275C297.408 216.571 297.286 219.868 297.286 223.042C297.286 225.728 297.408 228.291 297.653 230.733C297.775 232.93 298.02 234.884 298.387 236.959C298.754 238.912 299.121 240.866 299.489 242.697C300.835 248.19 302.671 253.074 304.996 257.346C305.486 258.201 305.975 259.178 306.587 260.032C309.035 263.695 311.85 266.747 315.032 269.066C319.805 272.607 325.435 274.682 331.677 275.048C335.839 275.292 340.367 274.682 345.018 273.339C349.057 272.118 353.218 270.287 357.502 267.845C359.949 266.38 362.397 264.793 364.845 262.962C367.905 260.643 370.964 258.079 373.902 255.271C393.607 236.349 409.15 206.805 414.78 177.261C415.637 172.866 416.249 168.472 416.616 164.199C416.983 160.536 417.105 156.996 417.105 153.456C416.861 147.962 416.371 142.835 415.637 138.073Z" fill="#FED425"/>
<path opacity="0.05" d="M299.366 199.236C298.877 201.555 298.51 203.997 298.143 206.317C297.775 208.636 297.531 210.956 297.408 213.275C297.163 216.571 297.041 219.868 297.041 223.042C297.041 225.727 297.163 228.291 297.408 230.733C297.531 232.93 297.775 234.883 298.143 236.959C298.51 238.912 298.877 240.865 299.244 242.697C300.59 248.19 302.426 253.074 304.752 257.346C305.241 258.201 305.731 259.178 306.343 260.032C308.79 263.695 311.605 266.747 314.788 269.066C319.561 272.606 325.191 274.682 331.433 275.048C335.594 275.292 340.122 274.682 344.773 273.339C348.812 272.118 352.973 270.287 357.257 267.845C359.46 266.502 361.663 265.16 363.744 263.572L299.366 199.236Z" fill="black"/>
<path opacity="0.05" d="M300.346 246.847C301.57 250.754 303.038 254.172 304.752 257.346C305.241 258.201 305.731 259.178 306.343 260.032C308.791 263.695 311.606 266.747 314.788 269.066C318.704 271.996 323.355 273.949 328.251 274.682L300.346 246.847Z" fill="black"/>
<path opacity="0.25" d="M307.566 171.523C305.608 176.285 304.017 181.29 302.548 186.173L372.678 256.126C373.045 255.881 373.29 255.515 373.657 255.271C376.594 252.463 379.532 249.289 382.224 245.993L307.566 171.523Z" fill="white"/>
<path opacity="0.25" d="M330.576 131.969C327.393 135.876 324.456 140.027 321.641 144.421L398.747 221.332C401.317 216.693 403.52 211.81 405.601 206.805L330.576 131.969Z" fill="white"/>
<path opacity="0.25" d="M339.266 122.325C337.43 124.156 335.594 126.109 333.88 128.063L407.682 201.678C408.661 198.87 409.64 196.184 410.497 193.376L339.266 122.325Z" fill="white"/>
<path opacity="0.25" d="M416.738 148.084C416.616 146.619 416.493 145.276 416.371 143.933C416.371 143.445 416.249 143.079 416.249 142.59C416.249 142.102 416.126 141.614 416.126 141.247C416.004 140.271 415.881 139.294 415.637 138.318C414.657 132.702 413.189 127.574 411.231 123.18C408.293 116.587 404.377 111.46 399.603 107.797C396.421 105.356 392.872 103.647 389.078 102.67C388.221 102.426 387.365 102.304 386.385 102.06C382.224 101.327 377.696 101.449 373.045 102.426C372.433 102.548 371.821 102.67 371.209 102.792L416.738 148.084Z" fill="white"/>
<path d="M401.562 162.49C401.562 193.986 383.204 230.244 359.95 245.749C358.97 246.359 357.991 246.97 357.012 247.58C332.412 261.741 312.34 246.725 312.34 213.886C312.34 181.046 332.289 142.957 357.012 128.795C357.991 128.185 358.97 127.696 359.95 127.208C383.204 115.855 401.562 130.993 401.562 162.49Z" fill="#FED425"/>
<path opacity="0.4" d="M401.562 162.49C401.562 193.986 383.204 230.244 359.95 245.749C358.97 246.359 357.991 246.97 357.012 247.58C332.412 261.741 312.34 246.725 312.34 213.886C312.34 181.046 332.289 142.957 357.012 128.795C357.991 128.185 358.97 127.696 359.95 127.208C383.204 115.855 401.562 130.993 401.562 162.49Z" fill="black"/>
<path d="M399.604 163.588C399.604 164.565 399.604 165.664 399.482 166.64C398.38 195.94 381.246 228.78 359.705 243.063C359.46 243.185 359.338 243.307 359.093 243.429C358.359 243.918 357.624 244.406 356.768 244.772C352.117 247.458 347.588 249.045 343.427 249.655C333.391 250.998 325.068 246.603 319.806 237.691C316.746 232.442 314.788 225.605 314.298 217.426C314.176 215.839 314.176 214.252 314.176 212.665C314.176 211.2 314.176 209.613 314.298 208.148C314.421 204.974 314.788 201.678 315.4 198.503C319.194 175.796 331.31 152.723 346.732 138.928C348.935 136.975 351.26 135.143 353.585 133.556C354.687 132.824 355.788 132.091 356.89 131.481C357.869 130.871 358.848 130.382 359.705 130.016C359.95 129.894 360.194 129.772 360.562 129.65C366.926 126.72 372.923 125.865 378.186 126.842C387.12 128.551 394.096 135.754 397.401 147.107C398.87 151.869 399.604 157.362 399.604 163.588Z" fill="#FED425"/>
<path opacity="0.7" d="M399.604 163.588C399.604 164.565 399.604 165.664 399.482 166.64C398.38 195.94 381.246 228.78 359.705 243.063C359.46 243.185 359.338 243.307 359.093 243.429C358.359 243.918 357.624 244.406 356.768 244.772C352.117 247.458 347.588 249.045 343.427 249.655C333.391 250.998 325.068 246.603 319.806 237.691C316.746 232.442 314.788 225.605 314.298 217.426C314.176 215.839 314.176 214.252 314.176 212.665C314.176 211.2 314.176 209.613 314.298 208.148C314.421 204.974 314.788 201.678 315.4 198.503C319.194 175.796 331.31 152.723 346.732 138.928C348.935 136.975 351.26 135.143 353.585 133.556C354.687 132.824 355.788 132.091 356.89 131.481C357.869 130.871 358.848 130.382 359.705 130.016C359.95 129.894 360.194 129.772 360.562 129.65C366.926 126.72 372.923 125.865 378.186 126.842C387.12 128.551 394.096 135.754 397.401 147.107C398.87 151.869 399.604 157.362 399.604 163.588Z" fill="#443A05"/>
<path d="M392.505 162.612C392.505 161.635 392.627 160.536 392.627 159.56C392.627 153.334 391.893 147.718 390.424 142.957C388.466 136.242 385.284 131.115 381.245 127.574C380.266 127.208 379.287 126.964 378.308 126.72C373.045 125.743 367.048 126.598 360.684 129.528C360.439 129.65 360.194 129.772 359.827 129.894C358.848 130.382 357.869 130.871 357.012 131.359C355.91 131.969 354.809 132.702 353.707 133.434C351.382 135.021 349.057 136.853 346.854 138.806C331.432 152.723 319.316 175.796 315.522 198.381C315.032 201.678 314.665 204.852 314.42 208.026C314.298 209.613 314.298 211.078 314.298 212.543C314.298 214.13 314.298 215.717 314.42 217.304C314.91 225.483 316.868 232.32 319.928 237.569C321.519 240.255 323.355 242.575 325.558 244.406C328.862 245.505 332.534 245.871 336.45 245.383C340.612 244.772 345.14 243.185 349.791 240.499C350.525 240.011 351.26 239.645 352.116 239.156C352.361 239.034 352.484 238.912 352.728 238.79C374.269 224.751 391.404 191.911 392.505 162.612Z" fill="#FED425"/>
<path opacity="0.6" d="M392.505 162.612C392.505 161.635 392.627 160.536 392.627 159.56C392.627 153.334 391.893 147.718 390.424 142.957C388.466 136.242 385.284 131.115 381.245 127.574C380.266 127.208 379.287 126.964 378.308 126.72C373.045 125.743 367.048 126.598 360.684 129.528C360.439 129.65 360.194 129.772 359.827 129.894C358.848 130.382 357.869 130.871 357.012 131.359C355.91 131.969 354.809 132.702 353.707 133.434C351.382 135.021 349.057 136.853 346.854 138.806C331.432 152.723 319.316 175.796 315.522 198.381C315.032 201.678 314.665 204.852 314.42 208.026C314.298 209.613 314.298 211.078 314.298 212.543C314.298 214.13 314.298 215.717 314.42 217.304C314.91 225.483 316.868 232.32 319.928 237.569C321.519 240.255 323.355 242.575 325.558 244.406C328.862 245.505 332.534 245.871 336.45 245.383C340.612 244.772 345.14 243.185 349.791 240.499C350.525 240.011 351.26 239.645 352.116 239.156C352.361 239.034 352.484 238.912 352.728 238.79C374.269 224.751 391.404 191.911 392.505 162.612Z" fill="#625800"/>
<path d="M386.386 101.815C382.592 101.205 378.675 101.327 374.881 101.938C372.923 102.182 371.209 102.914 369.251 103.402C368.762 103.525 368.272 103.647 367.905 103.769L366.559 104.257L363.866 105.356C360.317 106.821 357.012 108.774 353.83 110.849C352.239 111.948 350.648 112.925 349.179 114.268C347.71 115.489 346.119 116.587 344.773 117.93C343.304 119.273 341.836 120.494 340.489 121.837C339.143 123.18 337.797 124.522 336.451 125.987L332.656 130.26L328.985 134.777L325.558 139.416C324.456 141.003 323.477 142.59 322.376 144.178C320.295 147.352 318.337 150.648 316.501 154.066L315.155 156.63L313.931 159.193C313.074 160.903 312.217 162.612 311.483 164.443C309.892 167.983 308.423 171.524 307.077 175.064L305.119 180.436C304.507 182.267 304.017 184.098 303.405 185.929C302.793 187.76 302.426 189.592 301.937 191.423C301.447 193.254 301.08 195.085 300.59 197.039L299.978 199.846L299.489 202.654C299.244 204.608 298.877 206.439 298.632 208.392C298.387 210.345 298.143 212.177 298.02 214.13C297.898 216.083 297.775 217.914 297.653 219.868C297.653 220.844 297.653 221.821 297.653 222.798C297.653 223.774 297.653 224.751 297.775 225.606C297.898 227.559 297.898 229.512 298.02 231.343L298.632 237.081L299.734 242.697V242.575C300.957 247.58 302.549 252.585 304.996 257.102C305.608 258.201 306.343 259.422 306.955 260.399C307.689 261.497 308.423 262.474 309.28 263.573C310.871 265.526 312.829 267.357 314.91 268.944C312.829 267.357 310.871 265.648 309.158 263.695C308.301 262.718 307.567 261.619 306.71 260.643C305.975 259.544 305.364 258.445 304.629 257.347C302.059 252.83 300.223 247.824 298.999 242.819V242.941L297.898 237.325L297.163 231.587C297.041 229.634 296.919 227.681 296.796 225.85C296.796 224.873 296.674 223.896 296.674 222.92C296.674 221.943 296.674 220.966 296.674 219.99C296.674 218.036 296.796 216.083 296.919 214.252C297.041 212.299 297.286 210.467 297.531 208.514C297.653 206.561 298.02 204.608 298.387 202.776L298.877 199.969L299.489 197.161C299.856 195.329 300.223 193.376 300.835 191.545C301.325 189.714 301.692 187.76 302.304 185.929C302.916 184.098 303.405 182.267 304.017 180.436L305.975 174.942L308.056 169.57C308.79 167.739 309.647 166.03 310.382 164.321C311.116 162.49 312.095 160.781 312.952 159.071L314.298 156.508L315.644 153.944C317.48 150.526 319.561 147.23 321.641 144.055C322.743 142.468 323.722 140.881 324.946 139.294L328.373 134.655L332.045 130.138C333.268 128.673 334.615 127.208 335.961 125.865C337.307 124.4 338.654 123.18 340.122 121.715C341.469 120.372 342.937 119.151 344.406 117.808C345.875 116.465 347.466 115.366 348.934 114.146C350.403 112.925 352.117 111.826 353.708 110.849C357.012 108.774 360.317 106.821 363.988 105.478L366.681 104.501L368.027 104.013C368.517 103.769 369.006 103.769 369.496 103.647C371.332 103.158 373.168 102.548 375.126 102.304C378.675 101.205 382.592 101.083 386.386 101.815Z" fill="#F5F5F5"/>
</g>
<defs>
<clipPath id="clip0_34_2215">
<rect width="551" height="528" fill="white"/>
</clipPath>
</defs>
</svg>
